<?xml version="1.0" standalone="no"?>
<!DOCTYPE svg PUBLIC "-//W3C//DTD SVG 20010904//EN"
 "http://www.w3.org/TR/2001/REC-SVG-20010904/DTD/svg10.dtd">
<svg version="1.0" xmlns="http://www.w3.org/2000/svg"
 width="216.000000pt" height="216.000000pt" viewBox="0 0 216.000000 216.000000"
 preserveAspectRatio="xMidYMid meet">
<metadata>
Created by potrace 1.14, written by Peter Selinger 2001-2017
</metadata>
<g transform="translate(0.000000,216.000000) scale(0.100000,-0.100000)"
fill="#000000" stroke="none">
<path d="M1950 1965 c-49 -25 -101 -45 -120 -45 -16 0 -69 -29 -105 -58 -5 -4
-28 -21 -50 -37 -22 -17 -45 -34 -52 -40 -6 -5 -33 -28 -59 -50 -26 -22 -58
-50 -71 -62 -13 -13 -26 -23 -28 -23 -3 0 -22 -17 -43 -38 -63 -64 -133 -116
-140 -105 -57 87 -121 133 -189 133 -183 0 -288 -198 -292 -551 -1 -32 -7 -51
-21 -65 -33 -31 -77 -77 -99 -104 l-21 -25 -19 25 c-11 14 -23 35 -26 48 -7
28 -51 126 -106 237 -36 71 -40 86 -34 130 18 160 89 225 142 130 12 -22 25
-59 29 -83 3 -24 13 -50 21 -57 18 -19 54 -19 78 -1 16 12 19 28 19 126 l1
112 -30 24 c-16 14 -54 32 -84 40 -136 40 -260 -26 -329 -176 -21 -45 -31 -56
-42 -50 -8 4 -41 7 -74 6 -44 -2 -63 -7 -75 -22 -9 -10 -27 -20 -41 -22 -13
-1 -27 -6 -30 -11 -3 -4 -15 -13 -27 -20 -30 -16 -29 -38 7 -128 16 -41 30
-81 30 -89 0 -8 4 -22 9 -32 5 -9 16 -34 25 -54 9 -21 22 -53 30 -70 8 -18 29
-69 46 -113 18 -44 36 -89 41 -100 26 -59 109 -290 109 -305 0 -10 9 -20 19
-23 11 -3 20 -13 20 -23 1 -41 8 -67 22 -78 8 -6 13 -21 11 -33 -3 -20 1 -23
27 -23 24 0 32 -5 36 -23 4 -15 21 -30 47 -42 48 -21 70 -13 124 47 19 21 37
38 42 38 9 0 52 40 100 93 19 20 37 37 41 37 4 0 13 11 19 25 14 30 32 33 32
5 0 -11 11 -27 25 -36 24 -16 28 -15 84 10 104 46 226 31 401 -51 190 -90 263
-113 358 -113 96 0 189 35 309 119 59 40 71 62 52 97 -12 24 -61 34 -73 15
-15 -24 -125 -63 -192 -68 -88 -7 -159 14 -360 107 -46 22 -115 49 -153 60
l-69 21 25 44 c28 50 57 148 68 223 8 61 31 93 90 127 24 14 55 42 70 61 14
19 30 32 35 29 5 -3 15 2 22 11 45 56 71 74 109 74 32 0 39 4 39 19 0 11 4 21
8 23 4 2 18 18 31 36 16 22 30 32 49 32 19 0 41 14 71 45 24 24 58 54 77 67
19 13 34 28 34 35 0 6 8 14 18 17 25 8 112 96 112 113 0 7 9 13 20 13 13 0 20
7 20 20 0 23 -31 41 -38 22 -2 -7 -13 -12 -24 -12 -10 0 -27 -8 -36 -17 -16
-16 -17 -15 -20 1 -4 21 -45 66 -61 66 -16 0 -13 30 4 36 8 4 15 17 15 30 0
19 -7 26 -30 30 -26 6 -28 9 -19 26 13 24 34 45 82 81 25 19 37 36 37 53 0 25
-17 31 -38 14 -9 -7 -9 -7 -2 2 15 18 12 45 -6 52 -21 8 -35 6 -64 -9z m-839
-487 c6 -11 14 -42 18 -69 8 -50 8 -50 -33 -82 -23 -17 -43 -35 -44 -40 -2 -4
-12 -12 -22 -17 -19 -10 -20 -1 -5 115 11 78 12 84 30 111 13 21 19 23 31 13
8 -7 20 -21 25 -31z m13 -785 c-8 -33 -32 -63 -51 -63 -22 0 -15 20 20 55 40
41 39 41 31 8z m-164 -148 c0 -2 -10 -10 -22 -16 -21 -11 -22 -11 -9 4 13 16
31 23 31 12z"/>
<path d="M2093 1507 c-6 -7 -23 -23 -37 -36 -35 -31 -35 -61 0 -61 30 0 94 62
94 91 0 22 -38 26 -57 6z"/>
</g>
</svg>
